<svg xmlns="http://www.w3.org/2000/svg" viewBox="0 0 279.36 279.36"><defs><style>.cls-1{fill:#231f20;}</style></defs><title>logo</title><g id="Layer_2" data-name="Layer 2"><g id="curved"><path class="cls-1" d="M279.36,139.68A139.68,139.68,0,1,0,139.68,279.36,139.68,139.68,0,0,0,279.36,139.68Zm-19.25,0a119.86,119.86,0,0,1-22.85,70.58l-19.64-19.64,15.1-15.11L218,160.83l-15.1,15.1-36-36h35.27V119.2H150.07V107.42h52.17V86.65H150.07V74.87h52.17V54.1H150.07V19.7A120.43,120.43,0,0,1,260.11,139.68Zm-240.86,0A120.44,120.44,0,0,1,129.3,19.7V54.1H77.12V74.87H129.3V86.65H77.12v20.77H129.3V119.2H77.12V140h33.79L41.48,209.41A119.87,119.87,0,0,1,19.25,139.68ZM55,225.28,76.86,203.4a32.15,32.15,0,0,0,7.59,9.73c6.9,6,16.09,9,27.89,9a87,87,0,0,0,11.94-.88l-3.16-22.79c-10.44,1.45-17.9.53-21.57-2.66-2.3-2-3.72-5.66-4.22-10.86l43.61-43.61L223.64,226A120.41,120.41,0,0,1,55,225.28Z"/></g></g></svg>